<svg width="34" height="34" viewBox="0 0 34 34" fill="none" xmlns="http://www.w3.org/2000/svg">
<path fill-rule="evenodd" clip-rule="evenodd" d="M20.8349 8.91509C21.1005 9.18075 21.2497 9.54102 21.2497 9.91667C21.2497 10.2923 21.1005 10.6526 20.8349 10.9183L14.7532 17L20.8349 23.0818C21.093 23.3489 21.2358 23.7068 21.2326 24.0782C21.2293 24.4497 21.0803 24.805 20.8177 25.0677C20.555 25.3303 20.1997 25.4793 19.8282 25.4825C19.4568 25.4858 19.0989 25.343 18.8318 25.0849L11.7484 18.0016C11.4828 17.7359 11.3336 17.3757 11.3336 17C11.3336 16.6244 11.4828 16.2641 11.7484 15.9984L18.8318 8.91509C19.0974 8.6495 19.4577 8.50031 19.8333 8.50031C20.209 8.50031 20.5693 8.6495 20.8349 8.91509Z" fill="#020202"/>
</svg>
