<svg width="30" height="30" viewBox="0 0 30 30" fill="none" xmlns="http://www.w3.org/2000/svg">
<path fill-rule="evenodd" clip-rule="evenodd" d="M11.6163 7.86625C11.3819 8.10066 11.2503 8.41854 11.2503 8.75C11.2503 9.08146 11.3819 9.39934 11.6163 9.63375L16.9825 15L11.6163 20.3662C11.3886 20.602 11.2626 20.9178 11.2654 21.2455C11.2683 21.5732 11.3997 21.8868 11.6315 22.1185C11.8633 22.3503 12.1768 22.4817 12.5045 22.4846C12.8323 22.4874 13.148 22.3614 13.3838 22.1338L19.6338 15.8837C19.8681 15.6493 19.9998 15.3315 19.9998 15C19.9998 14.6685 19.8681 14.3507 19.6338 14.1163L13.3838 7.86625C13.1494 7.63191 12.8315 7.50027 12.5 7.50027C12.1686 7.50027 11.8507 7.63191 11.6163 7.86625Z" fill="#366D9F"/>
</svg>
