<svg width="30" height="30" viewBox="0 0 30 30" fill="none" xmlns="http://www.w3.org/2000/svg">
<path d="M11.25 15C10.9185 15 10.6005 15.1317 10.3661 15.3661C10.1317 15.6005 10 15.9185 10 16.25C10 16.5815 10.1317 16.8995 10.3661 17.1339C10.6005 17.3683 10.9185 17.5 11.25 17.5H18.75C19.0815 17.5 19.3995 17.3683 19.6339 17.1339C19.8683 16.8995 20 16.5815 20 16.25C20 15.9185 19.8683 15.6005 19.6339 15.3661C19.3995 15.1317 19.0815 15 18.75 15H11.25Z" fill="#6D6D6D"/>
<path d="M11.25 20C10.9185 20 10.6005 20.1317 10.3661 20.3661C10.1317 20.6005 10 20.9185 10 21.25C10 21.5815 10.1317 21.8995 10.3661 22.1339C10.6005 22.3683 10.9185 22.5 11.25 22.5H18.75C19.0815 22.5 19.3995 22.3683 19.6339 22.1339C19.8683 21.8995 20 21.5815 20 21.25C20 20.9185 19.8683 20.6005 19.6339 20.3661C19.3995 20.1317 19.0815 20 18.75 20H11.25Z" fill="#6D6D6D"/>
<path fill-rule="evenodd" clip-rule="evenodd" d="M5 8.75C5 7.0924 5.65848 5.50269 6.83058 4.33058C8.00269 3.15848 9.5924 2.5 11.25 2.5H15.7463C17.1653 2.50026 18.542 2.98341 19.65 3.87L22.6537 6.2725C23.3857 6.85793 23.9766 7.6005 24.3828 8.44522C24.7889 9.28995 24.9999 10.2152 25 11.1525V21.25C25 22.9076 24.3415 24.4973 23.1694 25.6694C21.9973 26.8415 20.4076 27.5 18.75 27.5H11.25C9.5924 27.5 8.00269 26.8415 6.83058 25.6694C5.65848 24.4973 5 22.9076 5 21.25V8.75ZM11.25 5C10.2554 5 9.30161 5.39509 8.59835 6.09835C7.89509 6.80161 7.5 7.75544 7.5 8.75V21.25C7.5 22.2446 7.89509 23.1984 8.59835 23.9017C9.30161 24.6049 10.2554 25 11.25 25H18.75C19.7446 25 20.6984 24.6049 21.4017 23.9017C22.1049 23.1984 22.5 22.2446 22.5 21.25V11.1525C22.5001 10.7612 22.4389 10.3724 22.3187 10H18.75C18.087 10 17.4511 9.73661 16.9822 9.26777C16.5134 8.79893 16.25 8.16304 16.25 7.5V5.03375C16.083 5.0112 15.9147 4.99992 15.7463 5H11.25Z" fill="#929292"/>
</svg>
