<svg width="14" height="14" viewBox="0 0 14 14" fill="none" xmlns="http://www.w3.org/2000/svg">
<path fill-rule="evenodd" clip-rule="evenodd" d="M9.62554 1.23958C9.7152 1.19142 9.81544 1.16636 9.91721 1.16666H11.6672C11.8218 1.16681 11.97 1.22834 12.0793 1.33772C12.1886 1.4471 12.25 1.59538 12.25 1.74999V11.6667C12.25 11.8214 12.1885 11.9697 12.0791 12.0791C11.9697 12.1885 11.8213 12.25 11.6666 12.25H9.35196C9.19725 12.25 9.04888 12.1885 8.93948 12.0791C8.83008 11.9697 8.76863 11.8214 8.76863 11.6667C8.76863 11.5119 8.83008 11.3636 8.93948 11.2542C9.04888 11.1448 9.19725 11.0833 9.35196 11.0833H11.0839V2.33333H10.0811L5.25229 5.01316V11.0833H6.96554C7.12025 11.0833 7.26863 11.1448 7.37802 11.2542C7.48742 11.3636 7.54888 11.5119 7.54888 11.6667C7.54888 11.8214 7.48742 11.9697 7.37802 12.0791C7.26863 12.1885 7.12025 12.25 6.96554 12.25H4.66896C4.63571 12.25 4.60246 12.2471 4.57038 12.2418H1.74996C1.59525 12.2418 1.44688 12.1804 1.33748 12.071C1.22808 11.9616 1.16663 11.8132 1.16663 11.6585V6.99183C1.16658 6.88342 1.19673 6.77715 1.25371 6.68493C1.31069 6.59272 1.39224 6.5182 1.48921 6.46974L4.08563 5.17124V4.66666C4.08563 4.45491 4.19238 4.25891 4.37729 4.15624L9.62554 1.23958ZM4.08563 6.47558L2.33329 7.35233V11.0752H4.08621V6.47499L4.08563 6.47558Z" fill="#020202"/>
<path fill-rule="evenodd" clip-rule="evenodd" d="M9.33329 5.24999C9.488 5.24999 9.63638 5.18854 9.74577 5.07914C9.85517 4.96974 9.91663 4.82137 9.91663 4.66666C9.91663 4.51195 9.85517 4.36358 9.74577 4.25418C9.63638 4.14479 9.488 4.08333 9.33329 4.08333C9.17858 4.08333 9.03021 4.14479 8.92081 4.25418C8.81142 4.36358 8.74996 4.51195 8.74996 4.66666C8.74996 4.82137 8.81142 4.96974 8.92081 5.07914C9.03021 5.18854 9.17858 5.24999 9.33329 5.24999ZM9.33329 7.58333C9.488 7.58333 9.63638 7.52187 9.74577 7.41247C9.85517 7.30308 9.91663 7.1547 9.91663 7C9.91663 6.84529 9.85517 6.69691 9.74577 6.58752C9.63638 6.47812 9.488 6.41666 9.33329 6.41666C9.17858 6.41666 9.03021 6.47812 8.92081 6.58752C8.81142 6.69691 8.74996 6.84529 8.74996 7C8.74996 7.1547 8.81142 7.30308 8.92081 7.41247C9.03021 7.52187 9.17858 7.58333 9.33329 7.58333ZM7.58329 9.33333C7.58329 9.48804 7.52183 9.63641 7.41244 9.74581C7.30304 9.8552 7.15467 9.91666 6.99996 9.91666C6.84525 9.91666 6.69688 9.8552 6.58748 9.74581C6.47808 9.63641 6.41663 9.48804 6.41663 9.33333C6.41663 9.17862 6.47808 9.03025 6.58748 8.92085C6.69688 8.81145 6.84525 8.75 6.99996 8.75C7.15467 8.75 7.30304 8.81145 7.41244 8.92085C7.52183 9.03025 7.58329 9.17862 7.58329 9.33333ZM9.91663 9.33333C9.91663 9.48804 9.85517 9.63641 9.74577 9.74581C9.63638 9.8552 9.488 9.91666 9.33329 9.91666C9.17858 9.91666 9.03021 9.8552 8.92081 9.74581C8.81142 9.63641 8.74996 9.48804 8.74996 9.33333C8.74996 9.17862 8.81142 9.03025 8.92081 8.92085C9.03021 8.81145 9.17858 8.75 9.33329 8.75C9.488 8.75 9.63638 8.81145 9.74577 8.92085C9.85517 9.03025 9.91663 9.17862 9.91663 9.33333ZM7.58329 7C7.58329 7.1547 7.52183 7.30308 7.41244 7.41247C7.30304 7.52187 7.15467 7.58333 6.99996 7.58333C6.84525 7.58333 6.69688 7.52187 6.58748 7.41247C6.47808 7.30308 6.41663 7.1547 6.41663 7C6.41663 6.84529 6.47808 6.69691 6.58748 6.58752C6.69688 6.47812 6.84525 6.41666 6.99996 6.41666C7.15467 6.41666 7.30304 6.47812 7.41244 6.58752C7.52183 6.69691 7.58329 6.84529 7.58329 7Z" fill="#020202"/>
</svg>
