<svg width="24" height="24" viewBox="0 0 24 24" fill="none" xmlns="http://www.w3.org/2000/svg">
<path d="M21 17.25H20.75V10C20.8087 9.49334 20.7521 8.97996 20.5844 8.49826C20.4167 8.01657 20.1423 7.57902 19.7816 7.21836C19.421 6.8577 18.9834 6.58326 18.5017 6.41557C18.02 6.24788 17.5067 6.19128 17 6.25H16.75V4C16.75 3.80109 16.671 3.61032 16.5303 3.46967C16.3897 3.32902 16.1989 3.25 16 3.25C15.8011 3.25 15.6103 3.32902 15.4697 3.46967C15.329 3.61032 15.25 3.80109 15.25 4V6.25H12.75V4C12.75 3.80109 12.671 3.61032 12.5303 3.46967C12.3897 3.32902 12.1989 3.25 12 3.25C11.8011 3.25 11.6103 3.32902 11.4697 3.46967C11.329 3.61032 11.25 3.80109 11.25 4V6.25H8.75V4C8.75 3.80109 8.67098 3.61032 8.53033 3.46967C8.38968 3.32902 8.19891 3.25 8 3.25C7.80109 3.25 7.61032 3.32902 7.46967 3.46967C7.32902 3.61032 7.25 3.80109 7.25 4V6.25H7C6.49334 6.19128 5.97996 6.24788 5.49826 6.41557C5.01657 6.58326 4.57902 6.8577 4.21836 7.21836C3.8577 7.57902 3.58326 8.01657 3.41557 8.49826C3.24788 8.97996 3.19128 9.49334 3.25 10V17.25H3C2.80109 17.25 2.61032 17.329 2.46967 17.4697C2.32902 17.6103 2.25 17.8011 2.25 18V19C2.25079 19.7291 2.54078 20.4281 3.05633 20.9437C3.57189 21.4592 4.2709 21.7492 5 21.75H19C19.7291 21.7492 20.4281 21.4592 20.9437 20.9437C21.4592 20.4281 21.7492 19.7291 21.75 19V18C21.75 17.8011 21.671 17.6103 21.5303 17.4697C21.3897 17.329 21.1989 17.25 21 17.25ZM7 7.75H17C18.577 7.75 19.25 8.423 19.25 10V11.154C18.5065 11.5181 17.8706 12.0695 17.405 12.754C17.1311 12.2557 16.7366 11.834 16.2575 11.5275C15.7785 11.2211 15.2303 11.0397 14.663 11C14.1183 11.0337 13.5904 11.2011 13.1259 11.4875C12.6614 11.774 12.2747 12.1705 12 12.642C11.7252 12.1704 11.3383 11.7738 10.8736 11.4874C10.4089 11.201 9.88081 11.0336 9.336 11C8.76903 11.0394 8.22098 11.2204 7.74197 11.5262C7.26296 11.8321 6.86828 12.2532 6.594 12.751C6.12899 12.0663 5.49339 11.5148 4.75 11.151V10C4.75 8.423 5.423 7.75 7 7.75ZM4.75 12.924C5.24689 13.4181 5.6681 13.9829 6 14.6C6.06862 14.7278 6.1728 14.833 6.29994 14.9029C6.42708 14.9728 6.57174 15.0044 6.71644 14.9938C6.86114 14.9832 6.99967 14.931 7.1153 14.8433C7.23093 14.7557 7.3187 14.6364 7.368 14.5C7.375 14.48 8.124 12.5 9.335 12.5C10.546 12.5 11.285 14.48 11.292 14.5C11.3439 14.6463 11.4398 14.7729 11.5666 14.8624C11.6934 14.952 11.8448 15 12 15C12.155 14.9998 12.3062 14.9517 12.4328 14.8622C12.5594 14.7726 12.6552 14.6461 12.707 14.5C12.889 13.982 13.638 12.5 14.662 12.5C15.874 12.5 16.622 14.482 16.629 14.5C16.6783 14.6367 16.766 14.7561 16.8817 14.844C16.9974 14.9318 17.1361 14.9843 17.281 14.995C17.4261 15.0047 17.5709 14.9727 17.6983 14.9027C17.8257 14.8327 17.9304 14.7276 18 14.6C18.3323 13.9817 18.7542 13.4159 19.252 12.921V17.25H4.75V12.924ZM20.25 19C20.2495 19.3314 20.1176 19.649 19.8833 19.8833C19.649 20.1176 19.3314 20.2495 19 20.25H5C4.66864 20.2495 4.35101 20.1176 4.1167 19.8833C3.88239 19.649 3.75053 19.3314 3.75 19V18.75H20.25V19Z" fill="#F37A8E"/>
</svg>
