<svg width="18" height="18" viewBox="0 0 18 18" fill="none" xmlns="http://www.w3.org/2000/svg">
<path fill-rule="evenodd" clip-rule="evenodd" d="M2.25 5.25C2.25 4.45435 2.56607 3.69129 3.12868 3.12868C3.69129 2.56607 4.45435 2.25 5.25 2.25H12.75C13.5456 2.25 14.3087 2.56607 14.8713 3.12868C15.4339 3.69129 15.75 4.45435 15.75 5.25V12.75C15.75 13.5456 15.4339 14.3087 14.8713 14.8713C14.3087 15.4339 13.5456 15.75 12.75 15.75H5.25C4.45435 15.75 3.69129 15.4339 3.12868 14.8713C2.56607 14.3087 2.25 13.5456 2.25 12.75V5.25ZM12.75 3.75H5.25C4.85218 3.75 4.47064 3.90804 4.18934 4.18934C3.90804 4.47064 3.75 4.85218 3.75 5.25V12.75C3.75 13.1478 3.90804 13.5294 4.18934 13.8107C4.47064 14.092 4.85218 14.25 5.25 14.25H12.75C13.1478 14.25 13.5294 14.092 13.8107 13.8107C14.092 13.5294 14.25 13.1478 14.25 12.75V5.25C14.25 4.85218 14.092 4.47064 13.8107 4.18934C13.5294 3.90804 13.1478 3.75 12.75 3.75Z" fill="#020202"/>
<path fill-rule="evenodd" clip-rule="evenodd" d="M6 1.5C6.19891 1.5 6.38968 1.57902 6.53033 1.71967C6.67098 1.86032 6.75 2.05109 6.75 2.25V3.75C6.75 3.94891 6.67098 4.13968 6.53033 4.28033C6.38968 4.42098 6.19891 4.5 6 4.5C5.80109 4.5 5.61032 4.42098 5.46967 4.28033C5.32902 4.13968 5.25 3.94891 5.25 3.75V2.25C5.25 2.05109 5.32902 1.86032 5.46967 1.71967C5.61032 1.57902 5.80109 1.5 6 1.5ZM12 1.5C12.1989 1.5 12.3897 1.57902 12.5303 1.71967C12.671 1.86032 12.75 2.05109 12.75 2.25V3.75C12.75 3.94891 12.671 4.13968 12.5303 4.28033C12.3897 4.42098 12.1989 4.5 12 4.5C11.8011 4.5 11.6103 4.42098 11.4697 4.28033C11.329 4.13968 11.25 3.94891 11.25 3.75V2.25C11.25 2.05109 11.329 1.86032 11.4697 1.71967C11.6103 1.57902 11.8011 1.5 12 1.5ZM9 7.5C9 7.30109 9.07902 7.11032 9.21967 6.96967C9.36032 6.82902 9.55109 6.75 9.75 6.75H12C12.1989 6.75 12.3897 6.82902 12.5303 6.96967C12.671 7.11032 12.75 7.30109 12.75 7.5C12.75 7.69891 12.671 7.88968 12.5303 8.03033C12.3897 8.17098 12.1989 8.25 12 8.25H9.75C9.55109 8.25 9.36032 8.17098 9.21967 8.03033C9.07902 7.88968 9 7.69891 9 7.5ZM6 9.75C5.80109 9.75 5.61032 9.82902 5.46967 9.96967C5.32902 10.1103 5.25 10.3011 5.25 10.5C5.25 10.6989 5.32902 10.8897 5.46967 11.0303C5.61032 11.171 5.80109 11.25 6 11.25H8.25C8.44891 11.25 8.63968 11.171 8.78033 11.0303C8.92098 10.8897 9 10.6989 9 10.5C9 10.3011 8.92098 10.1103 8.78033 9.96967C8.63968 9.82902 8.44891 9.75 8.25 9.75H6Z" fill="#020202"/>
</svg>
