<svg width="26" height="26" viewBox="0 0 26 26" fill="none" xmlns="http://www.w3.org/2000/svg">
<g clip-path="url(#clip0_283_1743)">
<mask id="mask0_283_1743" style="mask-type:luminance" maskUnits="userSpaceOnUse" x="0" y="0" width="26" height="26">
<path d="M0 0H26V26H0V0Z" fill="white"/>
</mask>
<g mask="url(#mask0_283_1743)">
<path d="M7.15005 1.95C7.26386 1.86464 7.35974 1.7577 7.43223 1.63528C7.50471 1.51287 7.55237 1.37738 7.57249 1.23654C7.59261 1.0957 7.58479 0.952285 7.54949 0.814471C7.51418 0.676656 7.45207 0.547146 7.36671 0.433333C7.28135 0.319521 7.17441 0.223636 7.052 0.151153C6.92958 0.0786694 6.79409 0.0310074 6.65325 0.0108881C6.51242 -0.00923128 6.369 -0.00141402 6.23118 0.0338935C6.09337 0.0692011 5.96386 0.131308 5.85005 0.216667L1.51671 3.46667C1.28686 3.63906 1.1349 3.8957 1.09427 4.18013C1.05363 4.46456 1.12765 4.75348 1.30005 4.98333C1.47244 5.21319 1.72908 5.36515 2.01351 5.40578C2.29794 5.44641 2.58686 5.37239 2.81671 5.2L7.15005 1.95Z" fill="#366D9F"/>
<path d="M18.6334 0.433338C18.8058 0.203483 19.0624 0.0515254 19.3469 0.0108925C19.6313 -0.0297404 19.9202 0.0442804 20.1501 0.216671L24.4834 3.46667C24.5972 3.55203 24.6931 3.65897 24.7656 3.78139C24.8381 3.9038 24.8857 4.0393 24.9059 4.18013C24.926 4.32097 24.9182 4.46439 24.8829 4.6022C24.8475 4.74002 24.7854 4.86953 24.7001 4.98334C24.6147 5.09715 24.5078 5.19304 24.3854 5.26552C24.263 5.338 24.1275 5.38566 23.9866 5.40578C23.8458 5.4259 23.7024 5.41809 23.5646 5.38278C23.4267 5.34747 23.2972 5.28536 23.1834 5.20001L18.8501 1.95C18.7363 1.86465 18.6404 1.7577 18.5679 1.63529C18.4954 1.51287 18.4478 1.37738 18.4276 1.23654C18.4075 1.09571 18.4153 0.952289 18.4506 0.814475C18.4859 0.676661 18.5481 0.54715 18.6334 0.433338Z" fill="#366D9F"/>
<path d="M14.0834 8.66665C14.0834 8.37933 13.9693 8.10378 13.7661 7.90061C13.5629 7.69745 13.2874 7.58331 13.0001 7.58331C12.7128 7.58331 12.4372 7.69745 12.234 7.90061C12.0309 8.10378 11.9167 8.37933 11.9167 8.66665V14.0833C11.9167 14.3706 12.0309 14.6462 12.234 14.8493C12.4372 15.0525 12.7128 15.1666 13.0001 15.1666H18.4167C18.7041 15.1666 18.9796 15.0525 19.1828 14.8493C19.3859 14.6462 19.5001 14.3706 19.5001 14.0833C19.5001 13.796 19.3859 13.5204 19.1828 13.3173C18.9796 13.1141 18.7041 13 18.4167 13H14.0834V8.66665Z" fill="#366D9F"/>
<path fill-rule="evenodd" clip-rule="evenodd" d="M13 2.16669C6.41879 2.16669 1.08337 7.5021 1.08337 14.0834C1.08337 20.6646 6.41879 26 13 26C19.5813 26 24.9167 20.6646 24.9167 14.0834C24.9167 7.5021 19.5813 2.16669 13 2.16669ZM3.25004 14.0834C3.25004 12.803 3.50223 11.5351 3.99222 10.3522C4.4822 9.16927 5.20038 8.09443 6.10575 7.18906C7.01112 6.28369 8.08595 5.56551 9.26888 5.07553C10.4518 4.58554 11.7197 4.33335 13 4.33335C14.2804 4.33335 15.5483 4.58554 16.7312 5.07553C17.9141 5.56551 18.989 6.28369 19.8943 7.18906C20.7997 8.09443 21.5179 9.16927 22.0079 10.3522C22.4979 11.5351 22.75 12.803 22.75 14.0834C22.75 16.6692 21.7228 19.1492 19.8943 20.9776C18.0659 22.8061 15.5859 23.8334 13 23.8334C10.4142 23.8334 7.93423 22.8061 6.10575 20.9776C4.27727 19.1492 3.25004 16.6692 3.25004 14.0834Z" fill="#F7A8B5"/>
</g>
</g>
<defs>
<clipPath id="clip0_283_1743">
<rect width="26" height="26" fill="white"/>
</clipPath>
</defs>
</svg>
