<svg width="18" height="18" viewBox="0 0 18 18" fill="none" xmlns="http://www.w3.org/2000/svg">
<path fill-rule="evenodd" clip-rule="evenodd" d="M3.72102 1.7604C3.78679 1.66182 3.87588 1.581 3.98038 1.52511C4.08487 1.46922 4.20155 1.43998 4.32006 1.44H12.9601C13.0786 1.43998 13.1952 1.46922 13.2997 1.52511C13.4042 1.581 13.4933 1.66182 13.5591 1.7604L16.4391 6.0804C16.5202 6.20195 16.5624 6.34529 16.5601 6.49138C16.5577 6.63747 16.511 6.77941 16.4261 6.89832L9.22614 16.9783C9.15954 17.0717 9.07161 17.1477 8.96967 17.2002C8.86772 17.2527 8.75472 17.2801 8.64006 17.2801C8.5254 17.2801 8.4124 17.2527 8.31045 17.2002C8.20851 17.1477 8.12058 17.0717 8.05398 16.9783L0.85398 6.89832C0.769084 6.77941 0.722376 6.63747 0.720061 6.49138C0.717746 6.34529 0.759934 6.20195 0.84102 6.0804L3.72102 1.7604ZM4.70526 2.88L2.78646 5.76H5.24166L6.20214 2.88H4.70526ZM7.71918 2.88L6.7587 5.76H10.5214L9.56094 2.88H7.71918ZM11.0787 2.88L12.0392 5.76H14.4944L12.5749 2.88H11.0787ZM14.4411 7.2H12.0629L10.4782 12.7483L14.4411 7.2ZM8.64006 13.9392L10.5653 7.2H6.71478L8.64006 13.9392ZM5.21718 7.2L6.8019 12.7483L2.83902 7.2H5.21718Z" fill="#1E1E1E"/>
</svg>
