<svg width="24" height="24" viewBox="0 0 24 24" fill="none" xmlns="http://www.w3.org/2000/svg">
<path fill-rule="evenodd" clip-rule="evenodd" d="M19.2069 2.79302C18.9171 2.50318 18.5731 2.27325 18.1944 2.11639C17.8157 1.95952 17.4098 1.87878 16.9999 1.87878C16.5901 1.87878 16.1842 1.95952 15.8055 2.11639C15.4268 2.27325 15.0828 2.50318 14.7929 2.79302L5.68494 11.901C5.3001 12.2855 5.02702 12.7673 4.89494 13.295L4.02994 16.758C3.98818 16.9255 3.9905 17.101 4.03667 17.2674C4.08285 17.4337 4.1713 17.5853 4.29343 17.7073C4.41556 17.8293 4.5672 17.9177 4.73359 17.9637C4.89998 18.0097 5.07546 18.0119 5.24294 17.97L8.70494 17.105C9.23266 16.973 9.71452 16.6999 10.0989 16.315L19.2069 7.20702C19.4968 6.91721 19.7267 6.57314 19.8836 6.19446C20.0404 5.81578 20.1212 5.40991 20.1212 5.00002C20.1212 4.59014 20.0404 4.18427 19.8836 3.80559C19.7267 3.42691 19.4968 3.08284 19.2069 2.79302ZM16.2069 4.20702C16.4173 3.99671 16.7025 3.87855 16.9999 3.87855C17.2974 3.87855 17.5826 3.99671 17.7929 4.20702C18.0033 4.41734 18.1214 4.70259 18.1214 5.00002C18.1214 5.29746 18.0033 5.58271 17.7929 5.79302L8.68494 14.901C8.55666 15.0292 8.39592 15.1201 8.21994 15.164L6.37394 15.626L6.83594 13.78C6.87999 13.6044 6.97089 13.444 7.09894 13.316L16.2069 4.20702Z" fill="white"/>
<path d="M5 20C4.73478 20 4.48043 20.1054 4.29289 20.2929C4.10536 20.4805 4 20.7348 4 21C4 21.2652 4.10536 21.5196 4.29289 21.7071C4.48043 21.8947 4.73478 22 5 22H19C19.2652 22 19.5196 21.8947 19.7071 21.7071C19.8946 21.5196 20 21.2652 20 21C20 20.7348 19.8946 20.4805 19.7071 20.2929C19.5196 20.1054 19.2652 20 19 20H5Z" fill="white"/>
</svg>
