<svg width="24" height="24" viewBox="0 0 24 24" fill="none" xmlns="http://www.w3.org/2000/svg">
<path fill-rule="evenodd" clip-rule="evenodd" d="M2 9C2 7.67392 2.52678 6.40215 3.46447 5.46447C4.40215 4.52678 5.67392 4 7 4H17C18.3261 4 19.5979 4.52678 20.5355 5.46447C21.4732 6.40215 22 7.67392 22 9V15C22 16.3261 21.4732 17.5979 20.5355 18.5355C19.5979 19.4732 18.3261 20 17 20H7C5.67392 20 4.40215 19.4732 3.46447 18.5355C2.52678 17.5979 2 16.3261 2 15V9ZM7 6C6.20435 6 5.44129 6.31607 4.87868 6.87868C4.31607 7.44129 4 8.20435 4 9V15C4 15.7956 4.31607 16.5587 4.87868 17.1213C5.44129 17.6839 6.20435 18 7 18H17C17.7956 18 18.5587 17.6839 19.1213 17.1213C19.6839 16.5587 20 15.7956 20 15V9C20 8.20435 19.6839 7.44129 19.1213 6.87868C18.5587 6.31607 17.7956 6 17 6H7Z" fill="#F37A8E"/>
<path fill-rule="evenodd" clip-rule="evenodd" d="M6.21992 8.37499C6.38562 8.16808 6.62668 8.03542 6.89013 8.00617C7.15359 7.97692 7.41788 8.05347 7.62492 8.21899L10.1259 10.22C10.6578 10.6455 11.3187 10.8773 11.9999 10.8773C12.6811 10.8773 13.342 10.6455 13.8739 10.22L16.3749 8.21999C16.5826 8.06394 16.843 7.99486 17.1007 8.02738C17.3585 8.0599 17.5935 8.19146 17.7559 8.39421C17.9184 8.59696 17.9956 8.85498 17.9711 9.11363C17.9467 9.37229 17.8225 9.61128 17.6249 9.77999L15.1229 11.782C14.2364 12.491 13.1351 12.8773 11.9999 12.8773C10.8648 12.8773 9.76341 12.491 8.87692 11.782L6.37492 9.77999C6.27233 9.69794 6.18691 9.59647 6.12354 9.48139C6.06017 9.36632 6.0201 9.23988 6.00561 9.10931C5.99112 8.97874 6.00251 8.8466 6.03911 8.72043C6.07571 8.59426 6.13681 8.47653 6.21892 8.37399L6.21992 8.37499Z" fill="#F37A8E"/>
</svg>
