<svg width="26" height="26" viewBox="0 0 26 26" fill="none" xmlns="http://www.w3.org/2000/svg">
<path fill-rule="evenodd" clip-rule="evenodd" d="M22.6351 8.18244C22.6988 8.30969 22.7368 8.44824 22.747 8.59018C22.7571 8.73212 22.7392 8.87466 22.6942 9.00967C22.6492 9.14468 22.5781 9.26951 22.4849 9.37702C22.3917 9.48453 22.2782 9.57263 22.1509 9.63627L19.3721 11.0251C19.1517 11.1353 18.9754 11.3174 18.8723 11.5414C18.7693 11.7653 18.7458 12.0177 18.8056 12.2569L19.058 13.2676C19.2347 13.9733 19.1567 14.7188 18.8379 15.3727C18.519 16.0267 17.9797 16.5472 17.3149 16.8426C17.1635 16.9097 17.0329 17.0162 16.9368 17.151C16.8407 17.2858 16.7826 17.444 16.7685 17.609C16.7545 17.774 16.785 17.9397 16.8569 18.0888C16.9288 18.238 17.0395 18.365 17.1773 18.4568L19.0179 19.682C19.1363 19.761 19.2379 19.8625 19.3171 19.9807C19.3962 20.099 19.4513 20.2316 19.4791 20.3712C19.507 20.5107 19.5071 20.6543 19.4795 20.7939C19.4518 20.9335 19.3969 21.0662 19.318 21.1846C19.239 21.303 19.1375 21.4046 19.0193 21.4838C18.901 21.5629 18.7684 21.618 18.6288 21.6458C18.4893 21.6737 18.3457 21.6738 18.2061 21.6462C18.0665 21.6185 17.9338 21.5636 17.8154 21.4847L15.9759 20.2584C13.949 18.9074 14.209 15.8514 16.4352 14.8623C16.6341 14.7739 16.7954 14.6182 16.8907 14.4226C16.986 14.227 17.0092 14.0041 16.9563 13.793L16.7039 12.7823C16.5248 12.065 16.5956 11.3081 16.9046 10.6365C17.2137 9.9649 17.7424 9.41872 18.4036 9.0881L21.1824 7.69819C21.4393 7.5699 21.7366 7.54884 22.009 7.63964C22.2814 7.73044 22.5066 7.92567 22.6351 8.18244Z" fill="#366D9F"/>
<path fill-rule="evenodd" clip-rule="evenodd" d="M16.5121 3.28252C16.6502 3.31697 16.7802 3.3783 16.8946 3.463C17.0089 3.5477 17.1055 3.65411 17.1787 3.77614C17.252 3.89818 17.3005 4.03345 17.3214 4.17423C17.3423 4.31501 17.3353 4.45853 17.3008 4.5966L16.628 7.28868C16.4522 7.99169 16.0464 8.61575 15.4752 9.06171C14.9041 9.50767 14.2002 9.74994 13.4755 9.75002H11.6133C11.4433 9.75006 11.2757 9.7901 11.1241 9.8669C10.9725 9.9437 10.841 10.0551 10.7404 10.1921C10.6398 10.3291 10.5728 10.4878 10.5449 10.6555C10.517 10.8232 10.529 10.9951 10.5798 11.1573L11.181 13.0834C11.961 15.5794 9.62321 17.9281 7.12396 17.1589L4.01479 16.2024C3.74012 16.1179 3.51025 15.9278 3.37575 15.6738C3.24126 15.4198 3.21315 15.1229 3.29763 14.8482C3.3821 14.5735 3.57222 14.3436 3.82618 14.2091C4.08013 14.0746 4.37712 14.0465 4.65179 14.131L7.76096 15.0887C7.94962 15.1467 8.15053 15.152 8.342 15.1041C8.53347 15.0563 8.70823 14.957 8.8474 14.817C8.98657 14.6771 9.08486 14.5018 9.13166 14.31C9.17846 14.1183 9.172 13.9174 9.11296 13.7291L8.51171 11.8029C8.35963 11.3164 8.32413 10.8009 8.40809 10.2981C8.49206 9.79526 8.69312 9.31925 8.99503 8.90851C9.29695 8.49776 9.69125 8.1638 10.1461 7.9336C10.6009 7.7034 11.1035 7.58342 11.6133 7.58335H13.4745C13.716 7.58334 13.9505 7.50264 14.1409 7.35406C14.3313 7.20548 14.4666 6.99753 14.5253 6.76327L15.1991 4.07118C15.2687 3.79253 15.4461 3.55291 15.6924 3.40502C15.9386 3.25713 16.2334 3.21307 16.5121 3.28252Z" fill="#366D9F"/>
<path fill-rule="evenodd" clip-rule="evenodd" d="M13 4.33335C10.7014 4.33335 8.49702 5.24645 6.8717 6.87176C5.24639 8.49708 4.33329 10.7015 4.33329 13C4.33329 15.2986 5.24639 17.503 6.8717 19.1283C8.49702 20.7536 10.7014 21.6667 13 21.6667C15.2985 21.6667 17.5029 20.7536 19.1282 19.1283C20.7535 17.503 21.6666 15.2986 21.6666 13C21.6666 10.7015 20.7535 8.49708 19.1282 6.87176C17.5029 5.24645 15.2985 4.33335 13 4.33335ZM2.16663 13C2.16663 7.01677 7.01671 2.16669 13 2.16669C18.9832 2.16669 23.8333 7.01677 23.8333 13C23.8333 18.9833 18.9832 23.8334 13 23.8334C7.01671 23.8334 2.16663 18.9833 2.16663 13Z" fill="#F7A8B5"/>
</svg>
