<svg width="24" height="24" viewBox="0 0 24 24" fill="none" xmlns="http://www.w3.org/2000/svg">
<path d="M21.2977 10.0196C21.3026 9.5502 21.1737 9.08844 20.9249 8.68433C20.6761 8.28022 20.3169 7.94916 19.8861 7.727L13.5819 4.42594C13.0375 4.13995 12.4269 3.99005 11.8063 3.99005C11.1857 3.99005 10.5751 4.13995 10.0307 4.42594L3.72645 7.727C3.29778 7.95122 2.93997 8.28221 2.69068 8.68517C2.44138 9.08812 2.30981 9.54813 2.30981 10.0168C2.30981 10.4855 2.44138 10.9455 2.69068 11.3484C2.93997 11.7514 3.29778 12.0824 3.72645 12.3066L5.23144 13.0945V16.5619C5.23243 17.0024 5.35053 17.4353 5.57455 17.8196C5.79857 18.204 6.12109 18.5271 6.51156 18.7583C8.0819 19.7633 9.91932 20.3153 11.8063 20.349C13.6931 20.3159 15.5305 19.7645 17.101 18.7601C17.491 18.5283 17.813 18.2047 18.0363 17.8201C18.2596 17.4354 18.377 17.0023 18.3772 16.5619V13.0945L19.8375 12.33V15.9077C19.8375 16.0936 19.9144 16.2719 20.0513 16.4033C20.1882 16.5348 20.3739 16.6086 20.5676 16.6086C20.7612 16.6086 20.9469 16.5348 21.0838 16.4033C21.2207 16.2719 21.2977 16.0936 21.2977 15.9077V10.3C21.2929 10.2621 21.2851 10.2246 21.2743 10.1878C21.2782 10.129 21.2977 10.0757 21.2977 10.0196ZM16.917 16.5619C16.9144 16.7645 16.8587 16.9633 16.7551 17.1398C16.6515 17.3164 16.5033 17.4651 16.3242 17.5722C15.0025 18.4682 13.4242 18.9493 11.8063 18.9493C10.1883 18.9493 8.61007 18.4682 7.28839 17.5722C7.10927 17.4651 6.9611 17.3164 6.8575 17.1398C6.7539 16.9633 6.69821 16.7645 6.69555 16.5619V13.859L10.0307 15.6058C10.5748 15.8928 11.1855 16.0433 11.8063 16.0433C12.4271 16.0433 13.0378 15.8928 13.5819 15.6058L16.917 13.859V16.5619ZM19.1823 11.0767L12.882 14.3759C12.5522 14.5493 12.1823 14.6402 11.8063 14.6402C11.4303 14.6402 11.0604 14.5493 10.7306 14.3759L4.43027 11.0757C4.232 10.9719 4.06651 10.8188 3.95121 10.6324C3.83592 10.446 3.77507 10.2331 3.77507 10.0163C3.77507 9.79953 3.83592 9.58673 3.95121 9.4003C4.06651 9.21388 4.232 9.06073 4.43027 8.95695L10.7355 5.65683C11.0652 5.4834 11.4352 5.39249 11.8112 5.39249C12.1871 5.39249 12.5571 5.4834 12.8868 5.65683L19.1872 8.95695C19.3854 9.06073 19.5509 9.21388 19.6662 9.4003C19.7815 9.58673 19.8424 9.79953 19.8424 10.0163C19.8424 10.2331 19.7815 10.446 19.6662 10.6324C19.5509 10.8188 19.3854 10.9719 19.1872 11.0757L19.1823 11.0767Z" fill="#F37A8E"/>
</svg>
