<svg width="31" height="31" viewBox="0 0 31 31" fill="none" xmlns="http://www.w3.org/2000/svg">
<path d="M9.6862 3.875C7.80206 3.875 5.99508 4.62347 4.66279 5.95576C3.3305 7.28805 2.58203 9.09502 2.58203 10.9792C2.58203 15.0918 4.92511 18.972 8.79882 22.5241C10.1202 23.7357 11.5436 24.7987 12.9554 25.7532C13.4501 26.0865 13.9138 26.3888 14.3284 26.6406C14.5816 26.7943 14.7482 26.9054 14.8529 26.9635C15.2429 27.1805 15.7544 27.1805 16.1445 26.9635C16.2492 26.9054 16.4158 26.7943 16.6689 26.6406C17.0836 26.3888 17.5473 26.0865 18.042 25.7532C19.4538 24.7987 20.8772 23.7357 22.1986 22.5241C26.0736 18.972 28.4154 15.0918 28.4154 10.9792C28.4154 9.09502 27.6669 7.28805 26.3346 5.95576C25.0023 4.62347 23.1953 3.875 21.3112 3.875C19.0831 3.875 16.9066 5.08917 15.5387 6.86133C14.2044 5.05817 12.037 3.875 9.6862 3.875ZM9.6862 6.45833C11.2543 6.45833 12.719 7.254 13.5612 8.47592C13.6426 8.59475 14.2884 9.54413 14.4085 9.72754C14.5235 9.90482 14.6802 10.0512 14.865 10.1538C15.0497 10.2564 15.2568 10.3121 15.468 10.3161C15.6793 10.32 15.8883 10.2721 16.0768 10.1765C16.2652 10.0808 16.4273 9.94044 16.5488 9.76758C16.6754 9.58546 17.3484 8.63996 17.4362 8.51725C18.3158 7.28758 19.8555 6.45833 21.3112 6.45833C22.5102 6.45833 23.6601 6.93463 24.5079 7.78245C25.3557 8.63028 25.832 9.78017 25.832 10.9792C25.832 14.2122 23.8157 17.4762 20.4238 20.5866C19.2207 21.6877 17.9385 22.6992 16.5876 23.613C16.1923 23.8816 15.8384 24.0909 15.4987 24.2988C15.1603 24.0909 14.8051 23.8816 14.4085 23.613C13.0585 22.6991 11.7772 21.6876 10.5749 20.5866C7.18166 17.4762 5.16536 14.2122 5.16536 10.9792C5.16536 9.78017 5.64166 8.63028 6.48949 7.78245C7.33731 6.93463 8.4872 6.45833 9.6862 6.45833Z" fill="white"/>
</svg>
