<svg width="29" height="29" viewBox="0 0 29 29" fill="none" xmlns="http://www.w3.org/2000/svg">
<path d="M25.0753 13.9626C23.7195 20.9552 14.8696 24.9831 14.8696 24.9831C14.8696 24.9831 6.01848 20.9552 4.66273 13.9626C3.83056 9.67342 5.64863 5.35652 10.2707 5.33456C13.7138 5.31838 14.8696 8.78808 14.8696 8.78808C14.8696 8.78808 16.0254 5.32069 19.4673 5.33456C24.0998 5.35652 25.9074 9.67342 25.0753 13.9626Z" fill="#F37A8E"/>
<path d="M9.0613 4.48108C7.29871 4.48108 5.60832 5.15347 4.36199 6.35032C3.11565 7.54718 2.41547 9.17046 2.41547 10.8631C2.41547 14.5577 4.60738 18.0434 8.23117 21.2344C9.4673 22.3228 10.7989 23.2778 12.1196 24.1353C12.5824 24.4347 13.0162 24.7062 13.404 24.9325C13.6409 25.0706 13.7968 25.1704 13.8946 25.2226C14.2595 25.4175 14.738 25.4175 15.103 25.2226C15.2008 25.1704 15.3567 25.0706 15.5935 24.9325C15.9814 24.7062 16.4152 24.4347 16.878 24.1353C18.1987 23.2778 19.5303 22.3228 20.7664 21.2344C24.3914 18.0434 26.5821 14.5577 26.5821 10.8631C26.5821 9.17046 25.8819 7.54718 24.6356 6.35032C23.3893 5.15347 21.6989 4.48108 19.9363 4.48108C17.8519 4.48108 15.8159 5.57182 14.5363 7.16384C13.288 5.54397 11.2605 4.48108 9.0613 4.48108ZM9.0613 6.80181C10.5282 6.80181 11.8985 7.51659 12.6863 8.61429C12.7624 8.72105 13.3666 9.57391 13.479 9.73868C13.5865 9.89794 13.7332 10.0294 13.906 10.1216C14.0788 10.2138 14.2725 10.2639 14.4701 10.2674C14.6678 10.271 14.8633 10.2279 15.0396 10.142C15.2158 10.0561 15.3675 9.92994 15.4812 9.77465C15.5996 9.61104 16.2291 8.76166 16.3113 8.65142C17.1342 7.54676 18.5745 6.80181 19.9363 6.80181C21.0579 6.80181 22.1336 7.22969 22.9268 7.99132C23.7199 8.75296 24.1655 9.78596 24.1655 10.8631C24.1655 13.7675 22.2793 16.6997 19.1062 19.4939C17.9806 20.483 16.7812 21.3917 15.5174 22.2126C15.1477 22.4539 14.8166 22.6419 14.4988 22.8287C14.1822 22.6419 13.8499 22.4539 13.479 22.2126C12.216 21.3916 11.0174 20.4829 9.89263 19.4939C6.71834 16.6997 4.83213 13.7675 4.83213 10.8631C4.83213 9.78596 5.2777 8.75296 6.07083 7.99132C6.86395 7.22969 7.93965 6.80181 9.0613 6.80181Z" fill="white"/>
</svg>
