<svg width="32" height="32" viewBox="0 0 32 32" fill="none" xmlns="http://www.w3.org/2000/svg">
<path fill-rule="evenodd" clip-rule="evenodd" d="M16 21.3333C15.2927 21.3333 14.6144 21.6143 14.1143 22.1144C13.6142 22.6145 13.3333 23.2927 13.3333 24V25.3333H18.6666V24C18.6666 23.2927 18.3857 22.6145 17.8856 22.1144C17.3855 21.6143 16.7072 21.3333 16 21.3333ZM10.6666 24C10.6666 22.5855 11.2285 21.2289 12.2287 20.2287C13.2289 19.2286 14.5855 18.6666 16 18.6666C17.4144 18.6666 18.771 19.2286 19.7712 20.2287C20.7714 21.2289 21.3333 22.5855 21.3333 24V26.6666C21.3333 27.0203 21.1928 27.3594 20.9428 27.6095C20.6927 27.8595 20.3536 28 20 28H12C11.6463 28 11.3072 27.8595 11.0572 27.6095C10.8071 27.3594 10.6666 27.0203 10.6666 26.6666V24Z" fill="#F37A8E"/>
<path fill-rule="evenodd" clip-rule="evenodd" d="M11.8613 5.57599C13.0391 4.64361 14.4972 4.13631 15.9993 4.13631C17.5015 4.13631 18.9596 4.64361 20.1373 5.57599L25.4707 9.79732C26.2591 10.4214 26.8962 11.2157 27.3343 12.1208C27.7723 13.026 27.9999 14.0184 28 15.024V21.3333C28 23.1014 27.2976 24.7971 26.0474 26.0474C24.7971 27.2976 23.1014 28 21.3333 28H10.6667C8.89856 28 7.20286 27.2976 5.95262 26.0474C4.70238 24.7971 4 23.1014 4 21.3333V15.024C3.99997 14.0186 4.22736 13.0261 4.66514 12.121C5.10293 11.2159 5.73977 10.4215 6.528 9.79732L11.8613 5.57599ZM18.4827 7.66666C17.776 7.1073 16.9012 6.80295 16 6.80295C15.0988 6.80295 14.224 7.1073 13.5173 7.66666L8.184 11.888C7.71096 12.2624 7.32876 12.739 7.06599 13.2821C6.80323 13.8252 6.66671 14.4207 6.66667 15.024V21.3333C6.66667 22.3942 7.08809 23.4116 7.83824 24.1618C8.58839 24.9119 9.6058 25.3333 10.6667 25.3333H21.3333C22.3942 25.3333 23.4116 24.9119 24.1618 24.1618C24.9119 23.4116 25.3333 22.3942 25.3333 21.3333V15.024C25.3333 14.4207 25.1968 13.8252 24.934 13.2821C24.6712 12.739 24.289 12.2624 23.816 11.888L18.4827 7.66666Z" fill="#F37A8E"/>
</svg>
