<svg width="30" height="30" viewBox="0 0 30 30" fill="none" xmlns="http://www.w3.org/2000/svg">
<path fill-rule="evenodd" clip-rule="evenodd" d="M15.3087 2.53875C15.5779 2.60737 15.8166 2.76368 15.987 2.98302C16.1575 3.20236 16.25 3.47223 16.25 3.75001V11.25H22.5C22.7169 11.25 22.93 11.3064 23.1185 11.4136C23.307 11.5209 23.4644 11.6754 23.5751 11.8619C23.6858 12.0484 23.7461 12.2605 23.75 12.4774C23.7539 12.6942 23.7014 12.9084 23.5975 13.0988L16.0975 26.8488C15.9645 27.0927 15.754 27.2854 15.4994 27.3963C15.2447 27.5073 14.9603 27.5303 14.6911 27.4617C14.4218 27.393 14.1832 27.2366 14.0128 27.0172C13.8424 26.7978 13.7499 26.5278 13.75 26.25V18.75H7.49999C7.2831 18.75 7.06993 18.6937 6.88144 18.5864C6.69294 18.4791 6.5356 18.3246 6.42489 18.1381C6.31417 17.9516 6.25389 17.7395 6.24996 17.5226C6.24603 17.3058 6.2986 17.0916 6.40249 16.9013L13.9025 3.15126C14.0355 2.90744 14.246 2.71487 14.5006 2.60396C14.7553 2.49304 15.0396 2.4701 15.3087 2.53875ZM9.60624 16.25H15C15.3315 16.25 15.6494 16.3817 15.8839 16.6161C16.1183 16.8505 16.25 17.1685 16.25 17.5V21.3475L20.395 13.75H15C14.6685 13.75 14.3505 13.6183 14.1161 13.3839C13.8817 13.1495 13.75 12.8315 13.75 12.5V8.6525L9.60624 16.25Z" fill="#F37A8E"/>
</svg>
