<svg width="16" height="16" viewBox="0 0 16 16" fill="none" xmlns="http://www.w3.org/2000/svg">
<path fill-rule="evenodd" clip-rule="evenodd" d="M7.99992 4C7.29267 4 6.6144 4.28095 6.1143 4.78105C5.6142 5.28115 5.33325 5.95942 5.33325 6.66667C5.33325 7.37391 5.6142 8.05219 6.1143 8.55229C6.6144 9.05238 7.29267 9.33333 7.99992 9.33333C8.70716 9.33333 9.38544 9.05238 9.88554 8.55229C10.3856 8.05219 10.6666 7.37391 10.6666 6.66667C10.6666 5.95942 10.3856 5.28115 9.88554 4.78105C9.38544 4.28095 8.70716 4 7.99992 4ZM6.66659 6.66667C6.66659 6.31304 6.80706 5.97391 7.05711 5.72386C7.30716 5.47381 7.6463 5.33333 7.99992 5.33333C8.35354 5.33333 8.69268 5.47381 8.94273 5.72386C9.19278 5.97391 9.33325 6.31304 9.33325 6.66667C9.33325 7.02029 9.19278 7.35943 8.94273 7.60948C8.69268 7.85952 8.35354 8 7.99992 8C7.6463 8 7.30716 7.85952 7.05711 7.60948C6.80706 7.35943 6.66659 7.02029 6.66659 6.66667Z" fill="#020202"/>
<path fill-rule="evenodd" clip-rule="evenodd" d="M7.94329 1.33333C7.25053 1.33298 6.56449 1.46911 5.92436 1.73396C5.28422 1.9988 4.70253 2.38717 4.21252 2.87687C3.72251 3.36657 3.33378 3.94801 3.06853 4.58798C2.80328 5.22795 2.66671 5.9139 2.66663 6.60666C2.66663 7.64666 2.97463 8.664 3.55196 9.52933L6.40863 13.8153C6.58319 14.0774 6.81979 14.2923 7.09741 14.441C7.37502 14.5896 7.68505 14.6674 7.99996 14.6674C8.31487 14.6674 8.6249 14.5896 8.90251 14.441C9.18013 14.2923 9.41673 14.0774 9.59129 13.8153L12.448 9.52933C12.8436 8.93585 13.1146 8.26824 13.2446 7.56694C13.3746 6.86564 13.3609 6.14524 13.2044 5.44939C13.0478 4.75353 12.7516 4.0967 12.3337 3.51869C11.9158 2.94067 11.385 2.45349 10.7733 2.08666C9.95273 1.59403 9.01371 1.33364 8.05663 1.33333H7.94329ZM5.91329 3.22933C6.52672 2.86129 7.2286 2.66681 7.94396 2.66666H8.05596C8.57365 2.66631 9.08635 2.76795 9.56475 2.96579C10.0432 3.16362 10.4779 3.45376 10.8442 3.81964C11.2104 4.18552 11.501 4.61997 11.6993 5.09817C11.8976 5.57638 11.9998 6.08897 12 6.60666C12.0002 7.38362 11.7706 8.1433 11.34 8.79L8.48263 13.0753C8.42982 13.1548 8.35818 13.22 8.27409 13.2651C8.18999 13.3102 8.09605 13.3338 8.00063 13.3338C7.9052 13.3338 7.81126 13.3102 7.72716 13.2651C7.64307 13.22 7.57143 13.1548 7.51863 13.0753L4.66196 8.79C4.36629 8.34661 4.16372 7.84781 4.06653 7.32382C3.96934 6.79983 3.97956 6.26156 4.09656 5.74163C4.21356 5.22171 4.43491 4.73095 4.74719 4.2991C5.05947 3.86726 5.45619 3.50331 5.91329 3.22933Z" fill="#020202"/>
</svg>
