<svg width="24" height="24" viewBox="0 0 24 24" fill="none" xmlns="http://www.w3.org/2000/svg">
<path fill-rule="evenodd" clip-rule="evenodd" d="M12 6C10.9391 6 9.92172 6.42143 9.17157 7.17157C8.42143 7.92172 8 8.93913 8 10C8 11.0609 8.42143 12.0783 9.17157 12.8284C9.92172 13.5786 10.9391 14 12 14C13.0609 14 14.0783 13.5786 14.8284 12.8284C15.5786 12.0783 16 11.0609 16 10C16 8.93913 15.5786 7.92172 14.8284 7.17157C14.0783 6.42143 13.0609 6 12 6ZM10 10C10 9.46957 10.2107 8.96086 10.5858 8.58579C10.9609 8.21071 11.4696 8 12 8C12.5304 8 13.0391 8.21071 13.4142 8.58579C13.7893 8.96086 14 9.46957 14 10C14 10.5304 13.7893 11.0391 13.4142 11.4142C13.0391 11.7893 12.5304 12 12 12C11.4696 12 10.9609 11.7893 10.5858 11.4142C10.2107 11.0391 10 10.5304 10 10Z" fill="#F37A8E"/>
<path fill-rule="evenodd" clip-rule="evenodd" d="M11.915 2C10.8759 1.99948 9.8468 2.20368 8.88659 2.60095C7.92639 2.99821 7.05386 3.58076 6.31885 4.31531C5.58383 5.04986 5.00073 5.92202 4.60286 6.88198C4.20498 7.84193 4.00013 8.87086 4 9.91C4 11.47 4.462 12.996 5.328 14.294L9.613 20.723C9.87485 21.1161 10.2298 21.4385 10.6462 21.6615C11.0626 21.8845 11.5276 22.0011 12 22.0011C12.4724 22.0011 12.9374 21.8845 13.3538 21.6615C13.7702 21.4385 14.1251 21.1161 14.387 20.723L18.672 14.294C19.2654 13.4038 19.672 12.4024 19.867 11.3504C20.062 10.2985 20.0415 9.21787 19.8066 8.17409C19.5718 7.13031 19.1275 6.14506 18.5006 5.27804C17.8738 4.41101 17.0775 3.68024 16.16 3.13C14.9291 2.39106 13.5206 2.00047 12.085 2H11.915ZM8.87 4.844C9.79014 4.29195 10.843 4.00023 11.916 4H12.084C12.8605 3.99948 13.6296 4.15194 14.3472 4.44869C15.0648 4.74543 15.7169 5.18064 16.2663 5.72946C16.8157 6.27828 17.2515 6.92996 17.549 7.64727C17.8465 8.36457 17.9997 9.13346 18 9.91C18.0004 11.0754 17.656 12.215 17.01 13.185L12.724 19.613C12.6448 19.7322 12.5373 19.83 12.4112 19.8977C12.285 19.9653 12.1441 20.0007 12.001 20.0007C11.8579 20.0007 11.717 19.9653 11.5908 19.8977C11.4647 19.83 11.3572 19.7322 11.278 19.613L6.993 13.185C6.54949 12.5199 6.24564 11.7717 6.09985 10.9857C5.95407 10.1997 5.96939 9.39235 6.1449 8.61246C6.3204 7.83257 6.65242 7.09643 7.12085 6.44866C7.58927 5.80089 8.18434 5.25498 8.87 4.844Z" fill="#F37A8E"/>
</svg>
