<svg width="24" height="24" viewBox="0 0 24 24" fill="none" xmlns="http://www.w3.org/2000/svg">
<path d="M20.92 3.009C20.6669 2.85177 20.3777 2.76212 20.0801 2.74864C19.7824 2.73516 19.4863 2.79829 19.22 2.932L15.791 4.646C15.7171 4.68273 15.6364 4.70381 15.554 4.70794C15.4716 4.71207 15.3892 4.69916 15.312 4.67L9.21201 2.384C8.94161 2.28265 8.65321 2.23815 8.36484 2.25329C8.07646 2.26843 7.79431 2.34289 7.53601 2.472L3.77001 4.355C3.31232 4.58234 2.92739 4.93323 2.65876 5.36797C2.39014 5.80272 2.24855 6.30396 2.25001 6.815V19.5C2.2503 19.7982 2.32675 20.0914 2.47212 20.3518C2.61748 20.6122 2.82695 20.8312 3.08066 20.9879C3.33437 21.1447 3.62391 21.234 3.92183 21.2475C4.21975 21.261 4.51618 21.1982 4.78301 21.065L8.20901 19.351C8.28291 19.3143 8.36359 19.2932 8.44601 19.2891C8.52843 19.2849 8.61081 19.2978 8.68801 19.327L14.788 21.613C15.0232 21.7019 15.2726 21.7473 15.524 21.747C15.546 21.747 15.567 21.74 15.589 21.739H15.602C15.619 21.739 15.633 21.73 15.649 21.729C15.9319 21.7158 16.2091 21.6454 16.464 21.522L20.232 19.639C20.6897 19.4117 21.0746 19.0608 21.3433 18.626C21.6119 18.1913 21.7535 17.69 21.752 17.179V4.5C21.7535 4.20087 21.6776 3.90644 21.5319 3.64522C21.3861 3.384 21.1753 3.16485 20.92 3.009ZM4.11201 19.726C4.07408 19.7456 4.03168 19.7549 3.98904 19.7529C3.9464 19.751 3.90501 19.7379 3.86901 19.715C3.83164 19.6932 3.80085 19.6617 3.77991 19.6239C3.75896 19.586 3.74863 19.5432 3.75001 19.5V6.815C3.74989 6.58323 3.81451 6.35603 3.9366 6.15902C4.0587 5.96201 4.2334 5.80303 4.44101 5.7L7.65001 4.1V17.98C7.61301 17.996 7.57401 18.002 7.53801 18.02L4.11201 19.726ZM9.21201 17.926C9.19101 17.918 9.16901 17.916 9.14801 17.908V3.961L14.784 6.075C14.805 6.083 14.827 6.084 14.848 6.092V20.039L9.21201 17.926ZM20.248 17.186C20.2487 17.4183 20.1843 17.6461 20.0622 17.8437C19.9401 18.0413 19.7651 18.2007 19.557 18.304L16.348 19.904V6.029C16.385 6.013 16.424 6.005 16.46 5.987L19.886 4.274C19.9241 4.25492 19.9664 4.24589 20.009 4.24775C20.0515 4.24961 20.0929 4.26232 20.1291 4.28466C20.1654 4.30699 20.1953 4.33823 20.2162 4.37539C20.237 4.41255 20.2479 4.45441 20.248 4.497V17.186Z" fill="#F37A8E"/>
</svg>
