<svg width="24" height="24" viewBox="0 0 24 24" fill="none" xmlns="http://www.w3.org/2000/svg">
<path fill-rule="evenodd" clip-rule="evenodd" d="M13.5 20H10.5V18H13.5V20Z" fill="#F37A8E"/>
<path fill-rule="evenodd" clip-rule="evenodd" d="M8 2C8 1.44 8.44 1 9 1H15C15.55 1 16 1.44 16 2V2.5C16 4.15 14.65 5.5 13 5.5H11C9.34 5.5 8 4.15 8 2.5V2ZM10.13 3C10.3 3.29 10.62 3.5 10.99 3.5H12.99C13.36 3.5 13.68 3.29 13.85 3H10.11H10.13Z" fill="#F37A8E"/>
<path fill-rule="evenodd" clip-rule="evenodd" d="M5 4C5 2.34 6.34 1 8 1H16C17.65 1 19 2.34 19 4V20C19 21.65 17.65 23 16 23H8C6.34 23 5 21.65 5 20V4ZM8 3C7.44 3 7 3.44 7 4V20C7 20.55 7.44 21 8 21H16C16.55 21 17 20.55 17 20V4C17 3.44 16.55 3 16 3H8Z" fill="#F37A8E"/>
</svg>
