<svg width="27" height="27" viewBox="0 0 27 27" fill="none" xmlns="http://www.w3.org/2000/svg">
<path d="M8.81063 2.2016C7.64226 2.2016 6.52174 2.66573 5.69557 3.4919C4.86941 4.31806 4.40527 5.43858 4.40527 6.60696V19.823C4.40527 20.9914 4.86941 22.1119 5.69557 22.9381C6.52174 23.7643 7.64226 24.2284 8.81063 24.2284H17.6213C18.7897 24.2284 19.9102 23.7643 20.7364 22.9381C21.5626 22.1119 22.0267 20.9914 22.0267 19.823V6.60696C22.0267 5.43858 21.5626 4.31806 20.7364 3.4919C19.9102 2.66573 18.7897 2.2016 17.6213 2.2016H8.81063ZM8.81063 4.40428H17.6213C18.2055 4.40428 18.7658 4.63635 19.1789 5.04943C19.592 5.46251 19.824 6.02277 19.824 6.60696V19.823C19.824 20.4072 19.592 20.9675 19.1789 21.3806C18.7658 21.7936 18.2055 22.0257 17.6213 22.0257H8.81063C8.22645 22.0257 7.66619 21.7936 7.2531 21.3806C6.84002 20.9675 6.60795 20.4072 6.60795 19.823V6.60696C6.60795 6.02277 6.84002 5.46251 7.2531 5.04943C7.66619 4.63635 8.22645 4.40428 8.81063 4.40428Z" fill="#F37A8E"/>
<path fill-rule="evenodd" clip-rule="evenodd" d="M9.91189 6.60803C9.61979 6.60803 9.33966 6.72407 9.13312 6.93061C8.92658 7.13715 8.81055 7.41728 8.81055 7.70937C8.81055 8.00147 8.92658 8.2816 9.13312 8.48814C9.33966 8.69468 9.61979 8.81071 9.91189 8.81071H16.5199C16.812 8.81071 17.0921 8.69468 17.2987 8.48814C17.5052 8.2816 17.6213 8.00147 17.6213 7.70937C17.6213 7.41728 17.5052 7.13715 17.2987 6.93061C17.0921 6.72407 16.812 6.60803 16.5199 6.60803H9.91189ZM9.91189 11.0134C9.61979 11.0134 9.33966 11.1294 9.13312 11.336C8.92658 11.5425 8.81055 11.8226 8.81055 12.1147C8.81055 12.4068 8.92658 12.687 9.13312 12.8935C9.33966 13.1 9.61979 13.2161 9.91189 13.2161H16.5199C16.812 13.2161 17.0921 13.1 17.2987 12.8935C17.5052 12.687 17.6213 12.4068 17.6213 12.1147C17.6213 11.8226 17.5052 11.5425 17.2987 11.336C17.0921 11.1294 16.812 11.0134 16.5199 11.0134H9.91189ZM8.81055 16.5201C8.81055 16.228 8.92658 15.9479 9.13312 15.7413C9.33966 15.5348 9.61979 15.4187 9.91189 15.4187H13.2159C13.508 15.4187 13.7881 15.5348 13.9947 15.7413C14.2012 15.9479 14.3172 16.228 14.3172 16.5201C14.3172 16.8122 14.2012 17.0923 13.9947 17.2989C13.7881 17.5054 13.508 17.6214 13.2159 17.6214H9.91189C9.61979 17.6214 9.33966 17.5054 9.13312 17.2989C8.92658 17.0923 8.81055 16.8122 8.81055 16.5201Z" fill="#F37A8E"/>
</svg>
