<svg width="21" height="30" viewBox="0 0 21 30" fill="none" xmlns="http://www.w3.org/2000/svg">
<path fill-rule="evenodd" clip-rule="evenodd" d="M4.95222 9.47662C4.95222 8.87458 5.11335 8.29721 5.40016 7.87151C5.68697 7.44581 6.07597 7.20665 6.48158 7.20665H14.1284C14.534 7.20665 14.923 7.44581 15.2098 7.87151C15.4966 8.29721 15.6578 8.87458 15.6578 9.47662V17.6224C16.5142 18.9617 17.1871 20.8264 17.1871 20.8264V9.47662C17.1871 8.27255 16.8649 7.11781 16.2913 6.2664C15.7176 5.415 14.9396 4.93669 14.1284 4.93669H6.48158C5.67036 4.93669 4.89236 5.415 4.31873 6.2664C3.74511 7.11781 3.42285 8.27255 3.42285 9.47662V20.8264C3.70349 19.6892 4.26859 17.7325 4.95222 16.0459V9.47662Z" fill="#366D9F"/>
<path fill-rule="evenodd" clip-rule="evenodd" d="M12.9814 12.8816C13.2856 12.8816 13.5773 12.7022 13.7924 12.3829C14.0076 12.0636 14.1284 11.6306 14.1284 11.1791C14.1284 10.7276 14.0076 10.2945 13.7924 9.97527C13.5773 9.65599 13.2856 9.47662 12.9814 9.47662C12.6772 9.47662 12.3854 9.65599 12.1703 9.97527C11.9552 10.2945 11.8344 10.7276 11.8344 11.1791C11.8344 11.6306 11.9552 12.0636 12.1703 12.3829C12.3854 12.7022 12.6772 12.8816 12.9814 12.8816ZM7.24626 12.8816C5.7169 12.8816 3.99025 18.5292 3.42285 20.8264C3.42285 23.3347 4.79163 25.3664 6.48082 25.3664H14.1299C15.8184 25.3664 17.1871 23.3347 17.1871 20.8264C17.1871 20.8264 15.5499 16.2865 14.1299 16.2865C13.2284 16.2865 12.3589 17.6644 11.8879 18.7324C11.8581 18.8005 11.8298 18.8686 11.8015 18.9378C11.6432 19.3283 11.4956 19.6915 11.0697 19.6915C10.5696 19.6915 10.4197 19.1523 10.2721 18.5814C9.54184 15.7565 8.39329 12.8816 7.24626 12.8816Z" fill="#366D9F"/>
</svg>
