<svg width="24" height="24" viewBox="0 0 24 24" fill="none" xmlns="http://www.w3.org/2000/svg">
<path d="M11.6251 2.08101L4.5941 5.08201C4.41595 5.15647 4.26418 5.28255 4.15831 5.44402C4.05245 5.60549 3.99734 5.79495 4.0001 5.98801C4.0001 10.368 4.1751 12.328 4.9691 14.585C6.0081 17.54 8.0481 19.895 11.5001 21.868C11.8071 22.044 12.1931 22.044 12.5001 21.868C15.9831 19.877 18.0321 17.53 19.0621 14.585C19.8461 12.344 20.0001 10.48 20.0001 5.98801C20.002 5.79513 19.9466 5.60601 19.8409 5.44469C19.7351 5.28338 19.5838 5.15714 19.4061 5.08201L12.4381 2.08101C12.3093 2.02751 12.1711 1.99997 12.0316 1.99997C11.8921 1.99997 11.7539 2.02751 11.6251 2.08101ZM12.0001 4.05001L17.9961 6.65301C18.0831 13.828 16.6771 16.973 12.0091 19.834C7.2201 16.855 5.9481 13.676 5.9971 6.66101C7.3601 6.07901 10.8471 4.54201 12.0001 4.05001Z" fill="#F37A8E"/>
<path d="M12 8C11.4696 8 10.9609 8.21071 10.5858 8.58579C10.2107 8.96086 10 9.46957 10 10C10 10.71 10.443 11.207 11 11.562V14C11 14.2652 11.1054 14.5196 11.2929 14.7071C11.4804 14.8946 11.7348 15 12 15C12.2652 15 12.5196 14.8946 12.7071 14.7071C12.8946 14.5196 13 14.2652 13 14V11.562C13.557 11.208 14 10.71 14 10C14 9.46957 13.7893 8.96086 13.4142 8.58579C13.0391 8.21071 12.5304 8 12 8Z" fill="#F37A8E"/>
</svg>
