<svg width="24" height="24" viewBox="0 0 24 24" fill="none" xmlns="http://www.w3.org/2000/svg">
<path fill-rule="evenodd" clip-rule="evenodd" d="M1.09814 9.35C1.09814 7.79854 2.4026 6.54616 4.01857 6.54616H19.5942C21.2004 6.54616 22.5146 7.79854 22.5146 9.35V18.6962C22.5146 20.2383 21.2004 21.5 19.5942 21.5H4.01857C2.4026 21.5 1.09814 20.2383 1.09814 18.6962V9.35ZM4.01857 8.41539C3.47342 8.41539 3.04509 8.82662 3.04509 9.35V18.6962C3.04509 19.2102 3.47342 19.6308 4.01857 19.6308H19.5942C20.1296 19.6308 20.5676 19.2102 20.5676 18.6962V9.35C20.5676 8.82662 20.1296 8.41539 19.5942 8.41539H4.01857Z" fill="#F37A8E"/>
<path fill-rule="evenodd" clip-rule="evenodd" d="M7.91248 5.61154C7.91248 4.06008 9.21693 2.80769 10.8329 2.80769H12.7798C14.3861 2.80769 15.7003 4.06008 15.7003 5.61154V7.48077C15.7003 7.99481 15.2622 8.41539 14.7268 8.41539H8.88595C8.3408 8.41539 7.91248 7.99481 7.91248 7.48077V5.61154ZM10.8329 4.67692C10.2878 4.67692 9.85943 5.08816 9.85943 5.61154V6.54615H13.7533V5.61154C13.7533 5.08816 13.3153 4.67692 12.7798 4.67692H10.8329Z" fill="#F37A8E"/>
<path fill-rule="evenodd" clip-rule="evenodd" d="M15.7003 20.5654V7.48077H17.6473V20.5654H15.7003Z" fill="#F37A8E"/>
<path fill-rule="evenodd" clip-rule="evenodd" d="M5.96558 20.5654V7.48077H7.91253V20.5654H5.96558Z" fill="#F37A8E"/>
<path fill-rule="evenodd" clip-rule="evenodd" d="M14.7268 10.2846H18.6207V12.1539H14.7268V10.2846Z" fill="#F37A8E"/>
<path fill-rule="evenodd" clip-rule="evenodd" d="M4.99207 10.2846H8.88596V12.1539H4.99207V10.2846Z" fill="#F37A8E"/>
</svg>
