<svg width="24" height="24" viewBox="0 0 24 24" fill="none" xmlns="http://www.w3.org/2000/svg">
<path d="M13 11C13 10.7348 12.8946 10.4804 12.7071 10.2929C12.5196 10.1054 12.2652 10 12 10C11.7348 10 11.4804 10.1054 11.2929 10.2929C11.1054 10.4804 11 10.7348 11 11V15C11 15.2652 11.1054 15.5196 11.2929 15.7071C11.4804 15.8946 11.7348 16 12 16C12.2652 16 12.5196 15.8946 12.7071 15.7071C12.8946 15.5196 13 15.2652 13 15V11Z" fill="white"/>
<path fill-rule="evenodd" clip-rule="evenodd" d="M8.99998 4H11V6C11 6.02 11 6.041 11.002 6.062C8.98486 6.31866 7.14113 7.33369 5.84547 8.90083C4.54981 10.468 3.89944 12.4696 4.02652 14.499C4.15359 16.5284 5.04859 18.4333 6.52962 19.8266C8.01065 21.2199 9.9666 21.997 12 22C13.6175 21.9999 15.1969 21.5095 16.53 20.5934C17.8632 19.6774 18.8873 18.3788 19.4673 16.8689C20.0474 15.359 20.1561 13.7087 19.7792 12.1357C19.4023 10.5628 18.5574 9.14102 17.356 8.058L17.707 7.708C17.7999 7.61516 17.8736 7.50492 17.9239 7.38359C17.9742 7.26226 18.0001 7.1322 18.0002 7.00085C18.0002 6.8695 17.9744 6.73943 17.9242 6.61807C17.874 6.4967 17.8003 6.38641 17.7075 6.2935C17.6146 6.20059 17.5044 6.12688 17.3831 6.07657C17.2617 6.02626 17.1317 6.00034 17.0003 6.0003C16.869 6.00025 16.7389 6.02608 16.6175 6.0763C16.4962 6.12652 16.3859 6.20016 16.293 6.293L15.687 6.899C14.8476 6.4621 13.937 6.17865 12.998 6.062C12.9993 6.04136 13 6.02068 13 6V4H15C15.2652 4 15.5195 3.89464 15.7071 3.70711C15.8946 3.51957 16 3.26522 16 3C16 2.73478 15.8946 2.48043 15.7071 2.29289C15.5195 2.10536 15.2652 2 15 2H8.99998C8.73476 2 8.48041 2.10536 8.29287 2.29289C8.10534 2.48043 7.99998 2.73478 7.99998 3C7.99998 3.26522 8.10534 3.51957 8.29287 3.70711C8.48041 3.89464 8.73476 4 8.99998 4ZM12 8C11.212 8 10.4318 8.1552 9.70388 8.45672C8.97592 8.75825 8.31449 9.20021 7.75734 9.75736C7.20019 10.3145 6.75823 10.9759 6.4567 11.7039C6.15517 12.4319 5.99998 13.2121 5.99998 14C5.99998 14.7879 6.15517 15.5681 6.4567 16.2961C6.75823 17.0241 7.20019 17.6855 7.75734 18.2426C8.31449 18.7998 8.97592 19.2417 9.70388 19.5433C10.4318 19.8448 11.212 20 12 20C13.5913 20 15.1174 19.3679 16.2426 18.2426C17.3678 17.1174 18 15.5913 18 14C18 12.4087 17.3678 10.8826 16.2426 9.75736C15.1174 8.63214 13.5913 8 12 8Z" fill="white"/>
</svg>
