<svg width="22" height="29" viewBox="0 0 22 29" fill="none" xmlns="http://www.w3.org/2000/svg">
<path d="M1 28H21.5" stroke="#366D9F" stroke-linecap="round" stroke-linejoin="round"/>
<path d="M7.16357 11.626L11.0124 14.524L14.8612 11.626" stroke="#366D9F" stroke-width="1.2" stroke-linecap="round" stroke-linejoin="round"/>
<path d="M11.0125 27.8064L11.0125 11.1429" stroke="#366D9F" stroke-width="1.2" stroke-linecap="round" stroke-linejoin="round"/>
<path d="M11.0458 11.143C9.53231 9.48112 7.41337 5.12595 11.0458 1C12.5089 2.71915 14.5572 7.15455 11.0458 11.143Z" stroke="#F7A8B5" stroke-width="1.2" stroke-linecap="round" stroke-linejoin="round"/>
<path d="M7.04037 11.519C7.45408 10.017 7.45299 6.72254 4.13896 5.5608C3.77128 7.07896 3.83681 10.396 7.04037 11.519Z" stroke="#F7A8B5" stroke-width="1.2" stroke-linecap="round" stroke-linejoin="round"/>
<path d="M15.1781 11.519C14.7644 10.017 14.7655 6.72254 18.0795 5.5608C18.4472 7.07896 18.3817 10.396 15.1781 11.519Z" stroke="#F7A8B5" stroke-width="1.2" stroke-linecap="round" stroke-linejoin="round"/>
<path d="M7.16357 18.7619L11.0124 21.1769L14.8612 18.7619" stroke="#366D9F" stroke-width="1.2" stroke-linecap="round" stroke-linejoin="round"/>
<path d="M7.04037 18.655C7.45408 17.153 7.45299 13.8585 4.13896 12.6968C3.77128 14.2149 3.83681 17.532 7.04037 18.655Z" stroke="#F7A8B5" stroke-width="1.2" stroke-linecap="round" stroke-linejoin="round"/>
<path d="M15.1781 18.655C14.7644 17.153 14.7655 13.8585 18.0795 12.6968C18.4472 14.2149 18.3817 17.532 15.1781 18.655Z" stroke="#F7A8B5" stroke-width="1.2" stroke-linecap="round" stroke-linejoin="round"/>
</svg>
