<svg width="24" height="24" viewBox="0 0 24 24" fill="none" xmlns="http://www.w3.org/2000/svg">
<path fill-rule="evenodd" clip-rule="evenodd" d="M12 2C10.6739 2 9.40215 2.52678 8.46447 3.46447C7.52678 4.40215 7 5.67392 7 7C7 8.32608 7.52678 9.59785 8.46447 10.5355C9.40215 11.4732 10.6739 12 12 12C13.3261 12 14.5979 11.4732 15.5355 10.5355C16.4732 9.59785 17 8.32608 17 7C17 5.67392 16.4732 4.40215 15.5355 3.46447C14.5979 2.52678 13.3261 2 12 2ZM9 7C9 6.20435 9.31607 5.44129 9.87868 4.87868C10.4413 4.31607 11.2044 4 12 4C12.7956 4 13.5587 4.31607 14.1213 4.87868C14.6839 5.44129 15 6.20435 15 7C15 7.79565 14.6839 8.55871 14.1213 9.12132C13.5587 9.68393 12.7956 10 12 10C11.2044 10 10.4413 9.68393 9.87868 9.12132C9.31607 8.55871 9 7.79565 9 7Z" fill="#F37A8E"/>
<path fill-rule="evenodd" clip-rule="evenodd" d="M10.143 14C8.51377 14 6.95128 14.6472 5.79924 15.7992C4.64721 16.9513 4 18.5138 4 20.143C4 21.169 4.831 22 5.857 22H18.143C18.6355 22 19.1078 21.8044 19.4561 21.4561C19.8044 21.1078 20 20.6355 20 20.143C20 18.5138 19.3528 16.9513 18.2008 15.7992C17.0487 14.6472 15.4862 14 13.857 14H10.143ZM13.857 16C14.9309 16.0001 15.9629 16.4173 16.7352 17.1635C17.5075 17.9097 17.9599 18.9267 17.997 20H6.003C6.079 17.778 7.903 16 10.143 16H13.857Z" fill="#F37A8E"/>
</svg>
