<svg width="30" height="30" viewBox="0 0 30 30" fill="none" xmlns="http://www.w3.org/2000/svg">
<path fill-rule="evenodd" clip-rule="evenodd" d="M15 2.5C13.3424 2.5 11.7527 3.15848 10.5806 4.33058C9.40848 5.50269 8.75 7.0924 8.75 8.75C8.75 10.4076 9.40848 11.9973 10.5806 13.1694C11.7527 14.3415 13.3424 15 15 15C16.6576 15 18.2473 14.3415 19.4194 13.1694C20.5915 11.9973 21.25 10.4076 21.25 8.75C21.25 7.0924 20.5915 5.50269 19.4194 4.33058C18.2473 3.15848 16.6576 2.5 15 2.5ZM11.25 8.75C11.25 7.75544 11.6451 6.80161 12.3483 6.09835C13.0516 5.39509 14.0054 5 15 5C15.9946 5 16.9484 5.39509 17.6517 6.09835C18.3549 6.80161 18.75 7.75544 18.75 8.75C18.75 9.74456 18.3549 10.6984 17.6517 11.4017C16.9484 12.1049 15.9946 12.5 15 12.5C14.0054 12.5 13.0516 12.1049 12.3483 11.4017C11.6451 10.6984 11.25 9.74456 11.25 8.75Z" fill="#929292"/>
<path fill-rule="evenodd" clip-rule="evenodd" d="M12.6787 17.5C10.6422 17.5 8.6891 18.309 7.24905 19.7491C5.80901 21.1891 5 23.1422 5 25.1787C5 26.4612 6.03875 27.5 7.32125 27.5H22.6787C23.2944 27.5 23.8848 27.2554 24.3201 26.8201C24.7554 26.3848 25 25.7944 25 25.1787C25 23.1422 24.191 21.1891 22.7509 19.7491C21.3109 18.309 19.3578 17.5 17.3213 17.5H12.6787ZM17.3213 20C18.6637 20.0002 19.9536 20.5216 20.919 21.4544C21.8844 22.3872 22.4499 23.6584 22.4963 25H7.50375C7.59875 22.2225 9.87875 20 12.6787 20H17.3213Z" fill="#6D6D6D"/>
</svg>
